<svg xmlns="http://www.w3.org/2000/svg" viewBox="0 0 390 844"><rect width="390" height="844" fill="#fffaf5"/><rect width="390" height="70" fill="#9e1c31"/><text x="24" y="43" fill="#fff7e8" font-family="Arial,sans-serif" font-size="17" font-weight="700">FUKU OKA Christmas Festa</text><text x="342" y="43" fill="#fff" font-size="22">☰</text><rect x="20" y="96" width="350" height="190" rx="18" fill="#173d52"/><circle cx="92" cy="164" r="48" fill="#f3b64c" opacity=".9"/><circle cx="290" cy="212" r="70" fill="#c33b45" opacity=".8"/><text x="42" y="142" fill="#fff3d8" font-family="Arial,sans-serif" font-size="13" letter-spacing="2">THEATER 2025</text><text x="42" y="190" fill="#fff" font-family="Arial,sans-serif" font-size="29" font-weight="700">ぼうけんの星</text><text x="42" y="224" fill="#fff3d8" font-family="Arial,sans-serif" font-size="13">オリジナル朗読劇</text><rect x="42" y="244" width="114" height="26" rx="13" fill="#f3b64c"/><text x="61" y="262" fill="#69303a" font-family="Arial,sans-serif" font-size="11" font-weight="700">12.21 開催</text><text x="24" y="338" fill="#9e1c31" font-family="Arial,sans-serif" font-size="23" font-weight="700">劇場で出会う、冬の物語</text><text x="24" y="370" fill="#6f6470" font-family="Arial,sans-serif" font-size="14">子どもたちと一緒に楽しむ特別な一日。</text><rect x="24" y="408" width="342" height="58" rx="29" fill="#9e1c31"/><text x="126" y="444" fill="#fff" font-family="Arial,sans-serif" font-size="15" font-weight="700">詳しく見る　›</text><rect x="24" y="500" width="162" height="120" rx="14" fill="#f7e1bf"/><rect x="204" y="500" width="162" height="120" rx="14" fill="#d9e9e3"/><text x="44" y="548" fill="#9e1c31" font-family="Arial,sans-serif" font-size="16" font-weight="700">STORY</text><text x="44" y="575" fill="#6f6470" font-family="Arial,sans-serif" font-size="12">あらすじ</text><text x="224" y="548" fill="#176052" font-family="Arial,sans-serif" font-size="16" font-weight="700">TICKET</text><text x="224" y="575" fill="#6f6470" font-family="Arial,sans-serif" font-size="12">参加方法</text><rect y="786" width="390" height="58" fill="#fff" stroke="#eaded6"/><text x="44" y="820" fill="#9e1c31" font-family="Arial,sans-serif" font-size="12">ホーム</text><text x="164" y="820" fill="#8f8790" font-family="Arial,sans-serif" font-size="12">イベント</text><text x="290" y="820" fill="#8f8790" font-family="Arial,sans-serif" font-size="12">メニュー</text></svg>
