<svg xmlns="http://www.w3.org/2000/svg" viewBox="0 0 390 844">
<rect width="390" height="844" fill="#f7f8fb"/><rect width="390" height="76" fill="#17213d"/><text x="24" y="39" fill="#fff" font-family="Arial,sans-serif" font-size="22" font-weight="700">YeLL</text><circle cx="350" cy="38" r="16" fill="#ff7c49"/><text x="24" y="116" fill="#17213d" font-family="Arial,sans-serif" font-size="24" font-weight="700">大会を探す</text><rect x="24" y="138" width="342" height="48" rx="24" fill="#fff" stroke="#dce1ed"/><text x="48" y="168" fill="#9ba4b7" font-family="Arial,sans-serif" font-size="14">大会名・開催地で検索</text><rect x="24" y="214" width="342" height="42" rx="21" fill="#ff7c49"/><text x="137" y="241" fill="#fff" font-family="Arial,sans-serif" font-size="15" font-weight="700">SNS 大会一覧</text><g font-family="Arial,sans-serif"><rect x="24" y="286" width="342" height="126" rx="16" fill="#fff"/><rect x="42" y="304" width="76" height="24" rx="12" fill="#e7f6f0"/><text x="54" y="321" fill="#168b67" font-size="12" font-weight="700">U15 / 全国</text><text x="42" y="356" fill="#17213d" font-size="17" font-weight="700">YeLL CUP 2025</text><text x="42" y="383" fill="#7d879b" font-size="13">12.21 sat　福岡県総合体育館</text><text x="328" y="356" fill="#ff7c49" font-size="22">›</text><rect x="24" y="430" width="342" height="126" rx="16" fill="#fff"/><rect x="42" y="448" width="76" height="24" rx="12" fill="#fff1e8"/><text x="54" y="465" fill="#e7683e" font-size="12" font-weight="700">U12 / 九州</text><text x="42" y="500" fill="#17213d" font-size="17" font-weight="700">Winter Challenge</text><text x="42" y="527" fill="#7d879b" font-size="13">12.28 sun　熊本市立体育館</text><text x="328" y="500" fill="#ff7c49" font-size="22">›</text></g><rect y="786" width="390" height="58" fill="#fff" stroke="#e3e7ef"/><text x="44" y="820" fill="#ff7c49" font-family="Arial,sans-serif" font-size="12">ホーム</text><text x="164" y="820" fill="#7d879b" font-family="Arial,sans-serif" font-size="12">大会</text><text x="286" y="820" fill="#7d879b" font-family="Arial,sans-serif" font-size="12">マイページ</text></svg>
